<?xml version="1.0" encoding="iso-8859-1"?>
<!-- Generator: Adobe Illustrator 19.0.0, SVG Export Plug-In . SVG Version: 6.00 Build 0)  -->
<svg version="1.1" id="Capa_1" xmlns="http://www.w3.org/2000/svg" xmlns:xlink="http://www.w3.org/1999/xlink" x="0px" y="0px"
	 viewBox="0 0 480 480" style="enable-background:new 0 0 480 480;" xml:space="preserve">
<g>
	<g>
		<path d="M448,144H328v-24c0-11.046-8.954-20-20-20c-2.209,0-4-1.791-4-4V80h8c4.418,0,8-3.582,8-8V16c0-8.837-7.163-16-16-16H96
			c-8.837,0-16,7.163-16,16v56c0,4.418,3.582,8,8,8h8v16c0,2.209-1.791,4-4,4c-11.046,0-20,8.954-20,20v88H16
			c-8.837,0-16,7.163-16,16v40c0,4.418,3.582,8,8,8h8v200c0,4.418,3.582,8,8,8h424c17.673,0,32-14.327,32-32V176
			C480,158.327,465.673,144,448,144z M288,16h16v48h-16V16z M256,16h16v48h-16V16z M224,16h16v48h-16V16z M192,16h16v48h-16V16z
			 M160,16h16v48h-16V16z M128,16h16v48h-16V16z M96,16h16v48H96V16z M80,224h16v32H80V224z M48,224h16v32H48V224z M16,256v-32h16
			v32H16z M176,464H32v-16h144V464z M176,432H32V304h144V432z M176,288H32v-16h144V288z M112,208v-48h176v64h-80
			c0-8.837-7.163-16-16-16H112z M160,224v32h-16v-32H160z M128,224v32h-16v-32H128z M176,256v-32h16v32h-8H176z M312,464H192V272h8
			c4.418,0,8-3.582,8-8v-24h88c4.418,0,8-3.582,8-8v-80c0-4.418-3.582-8-8-8H104c-4.418,0-8,3.582-8,8v56h-8v-88
			c0-2.209,1.791-4,4-4c11.046,0,20-8.954,20-20V80h176v16c0,11.046,8.954,20,20,20c2.209,0,4,1.791,4,4V464z M464,448
			c0,8.837-7.163,16-16,16H328V160h120c8.837,0,16,7.163,16,16V448z"/>
	</g>
</g>
<g>
	<g>
		<rect x="280" y="320" width="16" height="96"/>
	</g>
</g>
<g>
	<g>
		<rect x="280" y="432" width="16" height="16"/>
	</g>
</g>
<g>
	<g>
		<path d="M392,184c-17.673,0-32,14.327-32,32v48c0,17.673,14.327,32,32,32c17.673,0,32-14.327,32-32v-48
			C424,198.327,409.673,184,392,184z M408,264c0,8.837-7.163,16-16,16s-16-7.163-16-16v-16h32V264z M408,232h-32v-16
			c0-8.837,7.163-16,16-16s16,7.163,16,16V232z"/>
	</g>
</g>
<g>
	<g>
		<path d="M392,328c-17.673,0-32,14.327-32,32v48c0,17.673,14.327,32,32,32c17.673,0,32-14.327,32-32v-48
			C424,342.327,409.673,328,392,328z M408,408c0,8.837-7.163,16-16,16s-16-7.163-16-16v-16h32V408z M408,376h-32v-16
			c0-8.837,7.163-16,16-16s16,7.163,16,16V376z"/>
	</g>
</g>
<g>
	<g>
		<path d="M144,344h-16v-16c0-4.418-3.582-8-8-8H88c-4.418,0-8,3.582-8,8v16H64c-4.418,0-8,3.582-8,8v32c0,4.418,3.582,8,8,8h16v16
			c0,4.418,3.582,8,8,8h32c4.418,0,8-3.582,8-8v-16h16c4.418,0,8-3.582,8-8v-32C152,347.582,148.418,344,144,344z M136,376h-16
			c-4.418,0-8,3.582-8,8v16H96v-16c0-4.418-3.582-8-8-8H72v-16h16c4.418,0,8-3.582,8-8v-16h16v16c0,4.418,3.582,8,8,8h16V376z"/>
	</g>
</g>
<g>
</g>
<g>
</g>
<g>
</g>
<g>
</g>
<g>
</g>
<g>
</g>
<g>
</g>
<g>
</g>
<g>
</g>
<g>
</g>
<g>
</g>
<g>
</g>
<g>
</g>
<g>
</g>
<g>
</g>
</svg>
