<?xml version="1.0" encoding="iso-8859-1"?>
<!-- Generator: Adobe Illustrator 19.0.0, SVG Export Plug-In . SVG Version: 6.00 Build 0)  -->
<svg version="1.1" id="Capa_1" xmlns="http://www.w3.org/2000/svg" xmlns:xlink="http://www.w3.org/1999/xlink" x="0px" y="0px"
	 viewBox="0 0 477.863 477.863" style="enable-background:new 0 0 477.863 477.863;" xml:space="preserve">
<g>
	<g>
		<path d="M469.988,180.294c-8.959-8.892-22.927-10.279-33.46-3.322l-33.168,22.088l57.656-65.896
			c11.498-13.276,10.056-33.359-3.22-44.857c-12.237-10.597-30.481-10.311-42.38,0.665l-43.2,40.336l44.368-61.432
			c10.218-13.908,7.227-33.465-6.681-43.683c-13.379-9.83-32.109-7.481-42.647,5.348l-70.328,84.376l28.248-68.608
			c6.733-16.369-1.078-35.097-17.447-41.83c-6.711-2.76-14.16-3.162-21.129-1.138c-8.566,2.51-15.705,8.464-19.712,16.44
			l-60.304,120.608l-29.208,51.12l-8.76-65.72c-2.514-18.702-19.713-31.825-38.416-29.311
			c-16.409,2.206-28.875,15.858-29.584,32.399l-6.4,154.456c-0.052,0.962-0.173,1.919-0.36,2.864l-4.8,3.44
			c-0.361,0.252-0.698,0.535-1.008,0.848l-40,40c-1.518,1.492-2.379,3.528-2.392,5.656c0.032,1.292,0.384,2.557,1.024,3.68
			L0,385.483l11.312,11.312l46.344-46.344l96.688,96.688L136,465.483l11.312,11.312l18.344-18.344l2.344,2.344
			c3.124,3.123,8.188,3.123,11.312,0l39.272-39.256l55.072-32.152l40-23.336c3.52-2.055,4.932-6.427,3.28-10.152l-0.52-1.16
			l33.24-18.432c3.245-1.805,6.223-4.053,8.848-6.68l111.624-111.648C480.496,207.534,480.433,190.661,469.988,180.294z
			 M116.6,128.547c0.393-10.022,8.836-17.827,18.858-17.434c8.84,0.347,16.144,7.014,17.294,15.786l11.536,86.512l-20.712,36.232
			l-33,23.584L116.6,128.547z M209.656,408.227c-0.583,0.351-1.121,0.773-1.6,1.256l-34.4,34.344L64.968,335.139l29.928-29.928
			l143.608,86.168L209.656,408.227z M265.656,375.571l-11.352,6.616l-146.072-87.632l46.072-32.912
			c0.939-0.67,1.722-1.535,2.296-2.536l56.16-98.28l86.672,195.016L265.656,375.571z M458.824,206.627L347.168,318.339
			c-1.574,1.576-3.362,2.923-5.312,4l-31.928,17.736l-87.432-196.736l58.736-117.368c3.926-7.941,13.547-11.196,21.488-7.269
			c7.582,3.749,10.951,12.742,7.696,20.549l-48.16,116.84c-1.693,4.081,0.244,8.762,4.325,10.455c3.24,1.344,6.978,0.42,9.219-2.279
			L379.504,39.819c2.727-3.313,6.737-5.306,11.024-5.48c4.287-0.244,8.47,1.378,11.472,4.448c5.315,5.277,5.994,13.639,1.6,19.704
			l-92.432,127.96c-2.593,3.577-1.795,8.579,1.782,11.172c3.103,2.249,7.364,1.982,10.162-0.636l103.2-96.312
			c6.365-5.969,16.364-5.649,22.333,0.716c5.568,5.937,5.715,15.133,0.339,21.244l-97.336,111.2
			c-2.902,3.332-2.553,8.385,0.779,11.287c2.716,2.365,6.677,2.624,9.677,0.633l83.28-55.512c4.894-3.261,11.505-1.937,14.765,2.956
			C462.962,197.42,462.407,203.038,458.824,206.627z"/>
	</g>
</g>
<g>
</g>
<g>
</g>
<g>
</g>
<g>
</g>
<g>
</g>
<g>
</g>
<g>
</g>
<g>
</g>
<g>
</g>
<g>
</g>
<g>
</g>
<g>
</g>
<g>
</g>
<g>
</g>
<g>
</g>
</svg>
