<svg enable-background="new 0 0 492 492" viewBox="0 0 492 492" xmlns="http://www.w3.org/2000/svg"><g id="Master_Layer_3"/><g id="Layer_1"><g clip-rule="evenodd" fill-rule="evenodd"><path d="m417.205 235.647c-.873 0-1.759-.199-2.591-.619-105.417-53.208-231.289-53.209-336.707 0-2.84 1.434-6.304.293-7.738-2.547s-.293-6.304 2.547-7.738c26.973-13.615 55.545-24.038 84.924-30.982 28.993-6.853 58.809-10.327 88.62-10.327s59.627 3.475 88.62 10.327c29.378 6.944 57.951 17.367 84.924 30.982 2.84 1.433 3.98 4.898 2.547 7.738-1.013 2.008-3.042 3.166-5.146 3.166z" fill="#66bb6a"/><path d="m389.108 336.83h-285.696c-3.181 0-5.76-2.579-5.76-5.76v-23.808c0-3.181 2.579-5.76 5.76-5.76h285.696c3.181 0 5.76 2.579 5.76 5.76v23.808c0 3.181-2.579 5.76-5.76 5.76zm-279.936-11.52h274.176v-12.288h-274.176z" fill="#212121"/><path d="m389.108 313.022h-285.696c-2.436 0-4.608-1.532-5.426-3.826l-35.711-100.212c-.958-2.688.197-5.673 2.715-7.016 27.987-14.926 57.766-26.361 88.511-33.988 30.305-7.518 61.514-11.33 92.759-11.33s62.454 3.812 92.759 11.33c30.745 7.627 60.525 19.062 88.511 33.988 2.518 1.343 3.673 4.328 2.715 7.016l-35.712 100.212c-.817 2.293-2.989 3.826-5.425 3.826zm-281.633-11.52h277.572l32.67-91.676c-107.738-55.656-235.173-55.656-342.911 0z" fill="#212121"/><path d="m258.164 283.262h-23.808c-3.181 0-5.76-2.579-5.76-5.76v-12.096h-12.096c-3.181 0-5.76-2.579-5.76-5.76v-23.808c0-3.181 2.579-5.76 5.76-5.76h12.096v-12.096c0-3.181 2.579-5.76 5.76-5.76h23.808c3.181 0 5.76 2.579 5.76 5.76v12.096h12.096c3.181 0 5.76 2.579 5.76 5.76v23.808c0 3.181-2.579 5.76-5.76 5.76h-12.096v12.096c0 3.181-2.579 5.76-5.76 5.76zm-18.048-11.52h12.288v-12.096c0-3.181 2.579-5.76 5.76-5.76h12.096v-12.288h-12.096c-3.181 0-5.76-2.579-5.76-5.76v-12.096h-12.288v12.096c0 3.181-2.579 5.76-5.76 5.76h-12.096v12.288h12.096c3.181 0 5.76 2.579 5.76 5.76z" fill="#66bb6a"/></g></g></svg>