<svg enable-background="new 0 0 492 492" viewBox="0 0 492 492" xmlns="http://www.w3.org/2000/svg"><g id="Master_Layer_3"/><g id="Layer_1"><g clip-rule="evenodd" fill-rule="evenodd"><path d="m329.588 163.22h-47.616c-3.181 0-5.76-2.579-5.76-5.76v-11.904c0-4.582 1.754-8.762 4.625-11.904-2.871-3.142-4.625-7.322-4.625-11.904v-17.856c0-4.582 1.754-8.762 4.625-11.904-2.871-3.142-4.625-7.322-4.625-11.904v-11.904c0-3.181 2.579-5.76 5.76-5.76h47.616c3.181 0 5.76 2.579 5.76 5.76v89.28c0 3.181-2.579 5.76-5.76 5.76zm-41.856-11.52h36.096v-77.76h-36.096v6.144c0 3.388 2.756 6.144 6.144 6.144 3.181 0 5.76 2.579 5.76 5.76s-2.579 5.76-5.76 5.76c-3.388 0-6.144 2.756-6.144 6.144v17.856c0 3.388 2.756 6.144 6.144 6.144 3.181 0 5.76 2.579 5.76 5.76s-2.579 5.76-5.76 5.76c-3.388 0-6.144 2.756-6.144 6.144z" fill="#66bb6a"/><path d="m204.596 103.7h-35.712c-3.181 0-5.76-2.579-5.76-5.76v-29.76c0-3.181 2.579-5.76 5.76-5.76h35.712c3.181 0 5.76 2.579 5.76 5.76v29.76c0 3.181-2.579 5.76-5.76 5.76zm-29.952-11.52h24.192v-18.24h-24.192z" fill="#66bb6a"/><path d="m140.138 361.597c-1.474 0-2.948-.562-4.073-1.687-2.25-2.25-2.25-5.896 0-8.146l91.177-91.177c2.249-2.249 5.896-2.249 8.146 0 2.25 2.25 2.25 5.896 0 8.146l-91.177 91.177c-1.124 1.125-2.598 1.687-4.073 1.687z" fill="#66bb6a"/><path d="m142.142 271.479c-1.474 0-2.948-.562-4.073-1.687-2.25-2.25-2.25-5.896 0-8.146l87.259-87.259c2.25-2.249 5.896-2.249 8.146 0 2.249 2.25 2.249 5.897 0 8.146l-87.259 87.259c-1.125 1.125-2.599 1.687-4.073 1.687z" fill="#66bb6a"/><g fill="#212121"><path d="m329.588 431.06h-23.808c-3.181 0-5.76-2.579-5.76-5.76v-220.224c0-.894.208-1.776.608-2.576l23.2-46.4v-87.92c0-3.181 2.579-5.76 5.76-5.76h23.808c3.181 0 5.76 2.579 5.76 5.76v89.28c0 .894-.208 1.776-.608 2.576l-23.2 46.4v218.864c0 3.181-2.579 5.76-5.76 5.76zm-18.048-11.52h12.288v-214.464c0-.894.208-1.776.608-2.576l23.2-46.4v-82.16h-12.288v83.52c0 .894-.208 1.776-.608 2.576l-23.2 46.4zm41.856-262.08h.002z"/><path d="m234.356 407.252h-95.232c-1.55 0-3.035-.625-4.119-1.734s-1.675-2.607-1.64-4.157l5.952-261.888c.071-3.129 2.629-5.629 5.759-5.629h83.328c3.13 0 5.687 2.5 5.759 5.629l5.952 261.888c.035 1.55-.556 3.048-1.64 4.157s-2.569 1.734-4.119 1.734zm-89.339-11.52h83.447l-5.69-250.368h-72.067z"/><path d="m228.404 145.364h-83.328c-2.053 0-3.951-1.093-4.982-2.869s-1.038-3.966-.019-5.749l23.808-41.664c1.026-1.795 2.934-2.902 5.001-2.902h35.712c2.067 0 3.976 1.108 5.001 2.902l23.808 41.664c1.019 1.783 1.011 3.973-.019 5.749s-2.929 2.869-4.982 2.869zm-73.403-11.52h63.477l-17.225-30.144h-29.027z"/><path d="m234.356 431.06h-95.232c-3.181 0-5.76-2.579-5.76-5.76v-23.808c0-3.181 2.579-5.76 5.76-5.76h95.232c3.181 0 5.76 2.579 5.76 5.76v23.808c0 3.181-2.579 5.76-5.76 5.76zm-89.472-11.52h83.712v-12.288h-83.712z"/><path d="m162.932 431.06c-3.181 0-5.76-2.579-5.76-5.76v-23.808c0-3.181 2.579-5.76 5.76-5.76s5.76 2.579 5.76 5.76v23.808c0 3.181-2.579 5.76-5.76 5.76z"/><path d="m186.74 431.06c-3.181 0-5.76-2.579-5.76-5.76v-23.808c0-3.181 2.579-5.76 5.76-5.76s5.76 2.579 5.76 5.76v23.808c0 3.181-2.579 5.76-5.76 5.76z"/><path d="m210.548 431.06c-3.181 0-5.76-2.579-5.76-5.76v-23.808c0-3.181 2.579-5.76 5.76-5.76s5.76 2.579 5.76 5.76v23.808c0 3.181-2.579 5.76-5.76 5.76z"/></g></g></g></svg>